<?xml version="1.0" standalone="no"?>
<!DOCTYPE svg PUBLIC "-//W3C//DTD SVG 20010904//EN"
 "http://www.w3.org/TR/2001/REC-SVG-20010904/DTD/svg10.dtd">
<svg version="1.0" xmlns="http://www.w3.org/2000/svg"
 width="70.000000pt" height="70.000000pt" viewBox="0 0 70.000000 70.000000"
 preserveAspectRatio="xMidYMid meet">
<metadata>
Created by potrace 1.14, written by Peter Selinger 2001-2017
</metadata>
<g transform="translate(0.000000,70.000000) scale(0.100000,-0.100000)"
fill="#000000" stroke="none">
<path d="M63 681 c-63 -32 -62 -30 -63 -323 0 -233 2 -270 17 -296 24 -42 76
-62 160 -62 l70 0 2 58 c1 36 -4 70 -14 88 -15 28 -15 27 -15 -44 0 -55 -3
-73 -12 -69 -8 2 -13 22 -14 48 -2 65 -2 66 -29 73 -38 10 -35 61 5 84 28 16
30 21 30 78 0 67 -12 83 -74 98 -34 8 -64 35 -49 44 5 4 12 13 14 20 5 14 222
182 228 177 2 -2 -12 -26 -31 -52 -52 -73 -54 -77 -29 -61 11 7 23 18 25 25 8
21 80 113 88 113 4 0 8 -43 8 -95 0 -95 0 -96 28 -105 15 -6 35 -15 44 -20 10
-6 23 -10 28 -10 6 0 30 -8 53 -19 23 -10 49 -20 57 -23 22 -7 -14 -24 -67
-32 -40 -6 -43 -5 -43 16 0 25 -29 42 -88 54 l-32 7 0 -96 c0 -53 -4 -99 -10
-102 -5 -3 -10 -15 -10 -26 0 -17 8 -19 85 -19 52 0 85 4 85 10 0 7 6 7 20 0
25 -13 27 -58 3 -66 -39 -12 -48 -22 -45 -50 5 -39 -6 -74 -23 -74 -10 0 -15
17 -17 67 -2 42 -8 68 -15 71 -9 2 -13 -8 -13 -31 0 -18 -3 -36 -6 -40 -10 -9
-34 4 -34 18 0 8 -5 26 -12 42 -12 27 -12 26 -18 -27 -4 -42 -9 -56 -22 -58
-14 -3 -18 4 -18 30 -1 18 -7 44 -15 58 -13 23 -14 19 -15 -62 0 -59 -4 -88
-13 -91 -6 -3 63 -6 154 -6 130 -1 175 2 205 15 74 30 74 27 74 326 0 235 -2
270 -17 298 -11 19 -29 33 -46 37 -15 3 -30 10 -33 14 -3 5 -119 9 -257 8
-213 -1 -257 -4 -284 -18z m411 -186 c15 -8 33 -15 39 -15 20 0 117 -43 117
-52 0 -12 -25 -10 -56 7 -16 8 -37 15 -46 15 -9 0 -19 4 -22 9 -3 5 -18 12
-33 16 -14 3 -36 13 -47 21 -20 14 -20 14 -1 14 11 0 33 -7 49 -15z m-22 -92
c14 -13 18 -31 18 -85 0 -39 -4 -68 -10 -68 -5 0 -10 25 -10 55 l0 56 -35 -7
c-35 -6 -35 -6 -35 30 0 32 3 36 27 36 14 0 35 -7 45 -17z"/>
<path d="M293 503 c9 -2 25 -2 35 0 9 3 1 5 -18 5 -19 0 -27 -2 -17 -5z"/>
<path d="M205 490 c-18 -8 -17 -9 8 -9 16 -1 26 3 22 9 -3 6 -7 10 -8 9 -1 0
-11 -4 -22 -9z"/>
<path d="M118 473 c12 -2 30 -2 40 0 9 3 -1 5 -23 4 -22 0 -30 -2 -17 -4z"/>
<path d="M270 432 c0 -5 -11 -14 -25 -20 -23 -11 -25 -16 -25 -87 l0 -75 45 0
45 0 0 48 c0 46 -2 49 -35 61 -19 7 -35 16 -35 21 0 11 29 40 41 40 5 0 9 5 9
10 0 6 -4 10 -10 10 -5 0 -10 -4 -10 -8z"/>
</g>
</svg>
